<?xml version="1.0" encoding="UTF-8"?>
<svg version="1.1" xmlns="http://www.w3.org/2000/svg" width="64" height="64">
<path d="M0 0 C8.34468007 4.97590182 13.53387008 11.86345977 16.109375 21.2578125 C17.10789012 32.35758522 16.45884702 41.9922991 9.359375 51.0703125 C3.70168013 57.1280464 -3.34488592 60.84888618 -11.625 61.59375 C-22.35447774 61.83515993 -31.19802606 60.58332943 -39.359375 52.9609375 C-46.75303791 44.73737365 -48.47252567 36.02335615 -48.203125 25.24609375 C-47.72879865 16.86039919 -44.11592977 9.8548755 -37.890625 4.2578125 C-27.15195714 -3.81766573 -12.32399863 -5.91386512 0 0 Z " fill="#CB4F80" transform="translate(47.890625,2.7421875)"/>
<path d="M0 0 C3.41589373 3.41589373 3.91731121 8.13950215 4.125 12.8125 C2.74247422 15.50074457 1.88724096 15.6887714 -0.875 16.75 C-2.24444275 17.18458331 -3.61934911 17.6024585 -5 18 C-5.99 18.33 -6.98 18.66 -8 19 C-2.555 20.485 -2.555 20.485 3 22 C3 22.33 3 22.66 3 23 C2.31292969 22.9278125 1.62585937 22.855625 0.91796875 22.78125 C0.01691406 22.6884375 -0.88414063 22.595625 -1.8125 22.5 C-3.15248047 22.36078125 -3.15248047 22.36078125 -4.51953125 22.21875 C-7.08305099 21.95607599 -7.08305099 21.95607599 -10 22 C-9.12432227 23.03817463 -8.22347209 24.05515303 -7.3125 25.0625 C-6.81363281 25.63097656 -6.31476562 26.19945313 -5.80078125 26.78515625 C-4.03365864 28.21192496 -4.03365864 28.21192496 -1.625 28.0625 C1.4015323 26.83747502 2.84644628 25.1330826 4.89550781 22.64355469 C8.48125108 18.32632967 11.52629981 14.80587863 17.33984375 14.20703125 C21.27276887 14.12078859 25.10616783 14.46632757 29 15 C27.578543 23.9551791 24.32083663 30.63816174 17.125 36.375 C8.12033198 42.44556271 -0.44609202 42.93648835 -11 42 C-20.40392587 39.84112208 -26.80893665 34.37730955 -31.95703125 26.41796875 C-33.51707151 22.80124619 -34.14554709 18.84503809 -35 15 C-25.1 14.505 -25.1 14.505 -15 14 C-14.67 14.99 -14.34 15.98 -14 17 C-12.26969709 16.71515154 -10.54079286 16.42180062 -8.8125 16.125 C-7.36810547 15.88136719 -7.36810547 15.88136719 -5.89453125 15.6328125 C-3.08967396 15.01960483 -0.62775253 14.14333657 2 13 C1.855625 12.39671875 1.71125 11.7934375 1.5625 11.171875 C1.376875 10.37265625 1.19125 9.5734375 1 8.75 C0.814375 7.96109375 0.62875 7.1721875 0.4375 6.359375 C0 4 0 4 0 0 Z " fill="#577ABA" transform="translate(35,22)"/>
<path d="M0 0 C0.4640625 1.2375 0.4640625 1.2375 0.9375 2.5 C1.288125 3.325 1.63875 4.15 2 5 C4.97314468 5.82888749 4.97314468 5.82888749 8 6 C8.66 6.33 9.32 6.66 10 7 C9.44636539 15.02770189 7.34312056 22.33854067 5 30 C-3.57142857 29.14285714 -3.57142857 29.14285714 -7 27 C-3.15299368 24.91620491 0.90054429 23.50313376 5 22 C4.67 19.36 4.34 16.72 4 14 C4.33 16.31 4.66 18.62 5 21 C-0.39154257 24.20578207 -5.84431924 25.06898067 -12 26 C-13.78744364 21.48883273 -15.38079105 16.96907236 -16.75 12.3125 C-17.14445312 10.97638672 -17.14445312 10.97638672 -17.546875 9.61328125 C-18.04149959 6.76066183 -17.74083098 4.77811617 -17 2 C-15.10787298 1.46585888 -13.21108364 0.94821671 -11.3125 0.4375 C-10.25675781 0.14746094 -9.20101563 -0.14257812 -8.11328125 -0.44140625 C-4.96372579 -1.00650842 -3.01431142 -1.03923011 0 0 Z " fill="#FDFAFC" transform="translate(33,14)"/>
<path d="M0 0 C24.255 0.495 24.255 0.495 49 1 C43.3649635 6.6350365 43.3649635 6.6350365 39.875 8.25 C39.21242187 8.56453125 38.54984375 8.8790625 37.8671875 9.203125 C30.14682681 12.49800697 19.30745373 12.30194267 11.4375 9.375 C7.06644504 7.31150705 3.29404612 4.54491718 0 1 C0 0.67 0 0.34 0 0 Z " fill="#3C8FC8" transform="translate(7,53)"/>
<path d="M0 0 C3.41589373 3.41589373 3.91731121 8.13950215 4.125 12.8125 C2.74247422 15.50074457 1.88724096 15.6887714 -0.875 16.75 C-2.24444275 17.18458331 -3.61934911 17.6024585 -5 18 C-5.99 18.33 -6.98 18.66 -8 19 C-2.555 20.485 -2.555 20.485 3 22 C3 22.33 3 22.66 3 23 C2.31292969 22.9278125 1.62585937 22.855625 0.91796875 22.78125 C0.01691406 22.6884375 -0.88414063 22.595625 -1.8125 22.5 C-3.15248047 22.36078125 -3.15248047 22.36078125 -4.51953125 22.21875 C-7.08305099 21.95607599 -7.08305099 21.95607599 -10 22 C-9.01 23.32 -8.02 24.64 -7 26 C-15.25 26 -23.5 26 -32 26 C-35 18 -35 18 -35 15 C-25.1 14.505 -25.1 14.505 -15 14 C-14.67 14.99 -14.34 15.98 -14 17 C-12.26969709 16.71515154 -10.54079286 16.42180062 -8.8125 16.125 C-7.36810547 15.88136719 -7.36810547 15.88136719 -5.89453125 15.6328125 C-3.08967396 15.01960483 -0.62775253 14.14333657 2 13 C1.855625 12.39671875 1.71125 11.7934375 1.5625 11.171875 C1.376875 10.37265625 1.19125 9.5734375 1 8.75 C0.814375 7.96109375 0.62875 7.1721875 0.4375 6.359375 C0 4 0 4 0 0 Z " fill="#8870AE" transform="translate(35,22)"/>
<path d="M0 0 C1.11761719 0.02707031 1.11761719 0.02707031 2.2578125 0.0546875 C4.08909701 0.10164351 5.91971649 0.17338348 7.75 0.25 C7.44078116 1.70903258 7.12751201 3.16720722 6.8125 4.625 C6.55146484 5.84316406 6.55146484 5.84316406 6.28515625 7.0859375 C5.75 9.25 5.75 9.25 4.75 11.25 C-2.84 11.25 -10.43 11.25 -18.25 11.25 C-16.27 8.94 -14.29 6.63 -12.25 4.25 C-11.63640625 3.45078125 -11.0228125 2.6515625 -10.390625 1.828125 C-7.14104918 -0.56754768 -3.86129902 -0.17737416 0 0 Z " fill="#7366A9" transform="translate(56.25,36.75)"/>
<path d="M0 0 C2.46800047 1.15173355 4.04783565 2.04783565 6 4 C6.03263665 8.58544972 3.56187161 11.00612201 0.53515625 14.109375 C-0.05394531 14.69203125 -0.64304687 15.2746875 -1.25 15.875 C-1.82363281 16.48085938 -2.39726563 17.08671875 -2.98828125 17.7109375 C-7.23770477 21.9700408 -7.23770477 21.9700408 -10.68359375 22.10546875 C-13.28629657 20.86336943 -14.85478171 19.54876483 -16.8125 17.4375 C-17.71935547 16.47650391 -17.71935547 16.47650391 -18.64453125 15.49609375 C-19.09183594 15.00238281 -19.53914063 14.50867187 -20 14 C-18 13 -18 13 -14.75 13.9375 C-11.25908452 14.92659272 -8.59318389 15.17527726 -5 15 C-3.08460953 10.03739743 -1.39038565 5.13373162 0 0 Z " fill="#F4F1F7" transform="translate(43,29)"/>
<path d="M0 0 C11.22 0 22.44 0 34 0 C34 0.66 34 1.32 34 2 C25.74575229 6.12712385 15.61443661 6.55507777 6.7421875 4.09765625 C4.41881654 3.16764594 2.20227809 2.18584205 0 1 C0 0.67 0 0.34 0 0 Z " fill="#279ED4" transform="translate(14,59)"/>
<path d="M0 0 C0.45890625 0.82886719 0.9178125 1.65773438 1.390625 2.51171875 C0.390625 3.51171875 0.390625 3.51171875 -1.65063477 3.62524414 C-2.52518311 3.62000732 -3.39973145 3.61477051 -4.30078125 3.609375 C-5.24501953 3.60615234 -6.18925781 3.60292969 -7.16210938 3.59960938 C-8.15533203 3.59123047 -9.14855469 3.58285156 -10.171875 3.57421875 C-11.16896484 3.56970703 -12.16605469 3.56519531 -13.19335938 3.56054688 C-15.66542349 3.54871882 -18.13737018 3.53223724 -20.609375 3.51171875 C-20.939375 1.86171875 -21.269375 0.21171875 -21.609375 -1.48828125 C-18.5288356 -1.8019736 -15.44614146 -2.05661757 -12.359375 -2.30078125 C-11.48667969 -2.39037109 -10.61398437 -2.47996094 -9.71484375 -2.57226562 C-3.19339168 -3.04519536 -3.19339168 -3.04519536 0 0 Z " fill="#8E549C" transform="translate(21.609375,38.48828125)"/>
<path d="M0 0 C1.4539304 0.03304387 2.90746075 0.09241162 4.359375 0.17578125 C5.10445312 0.19833984 5.84953125 0.22089844 6.6171875 0.24414062 C8.448784 0.30284564 10.27934153 0.39252368 12.109375 0.48828125 C11.234375 4.36328125 11.234375 4.36328125 10.109375 5.48828125 C8.76670087 5.57459999 7.41963178 5.59534598 6.07421875 5.5859375 C5.26533203 5.58271484 4.45644531 5.57949219 3.62304688 5.57617188 C2.77291016 5.56779297 1.92277344 5.55941406 1.046875 5.55078125 C0.19287109 5.54626953 -0.66113281 5.54175781 -1.54101562 5.53710938 C-3.65758163 5.52528498 -5.77411185 5.50734894 -7.890625 5.48828125 C-5.55366688 1.58310123 -4.62048184 0.57987975 0 0 Z " fill="#8D539B" transform="translate(51.890625,36.51171875)"/>
</svg>
